<svg width="563" height="296" viewBox="0 0 563 296" fill="none" xmlns="http://www.w3.org/2000/svg">
<g clip-path="url(#clip0_11_3)" filter="url(#filter0_b_11_3)">
<rect width="563" height="296" fill="url(#paint0_linear_11_3)"/>
<g filter="url(#filter1_f_11_3)">
<path d="M138.391 63.0469C138.313 63.0469 138.246 63.0195 138.191 62.9648C138.137 62.9102 138.109 62.8437 138.109 62.7656C138.109 62.6875 138.137 62.6211 138.191 62.5664C138.246 62.5117 138.313 62.4844 138.391 62.4844C138.469 62.4844 138.535 62.5117 138.59 62.5664C138.645 62.6211 138.672 62.6875 138.672 62.7656C138.672 62.8177 138.659 62.8659 138.633 62.9102C138.609 62.9518 138.576 62.9844 138.531 63.0078C138.49 63.0339 138.443 63.0469 138.391 63.0469Z" fill="white"/>
</g>
<g filter="url(#filter2_f_11_3)">
<path d="M50.3906 35.0469C50.3125 35.0469 50.2461 35.0195 50.1914 34.9648C50.1367 34.9102 50.1094 34.8437 50.1094 34.7656C50.1094 34.6875 50.1367 34.6211 50.1914 34.5664C50.2461 34.5117 50.3125 34.4844 50.3906 34.4844C50.4688 34.4844 50.5352 34.5117 50.5898 34.5664C50.6445 34.6211 50.6719 34.6875 50.6719 34.7656C50.6719 34.8177 50.6589 34.8659 50.6328 34.9102C50.6094 34.9518 50.5755 34.9844 50.5313 35.0078C50.4896 35.0339 50.4427 35.0469 50.3906 35.0469Z" fill="white"/>
</g>
<g filter="url(#filter3_f_11_3)">
<path d="M58.3906 82.0469C58.3125 82.0469 58.2461 82.0195 58.1914 81.9648C58.1367 81.9102 58.1094 81.8437 58.1094 81.7656C58.1094 81.6875 58.1367 81.6211 58.1914 81.5664C58.2461 81.5117 58.3125 81.4844 58.3906 81.4844C58.4688 81.4844 58.5352 81.5117 58.5898 81.5664C58.6445 81.6211 58.6719 81.6875 58.6719 81.7656C58.6719 81.8177 58.6589 81.8659 58.6328 81.9102C58.6094 81.9518 58.5755 81.9844 58.5313 82.0078C58.4896 82.0339 58.4427 82.0469 58.3906 82.0469Z" fill="white"/>
</g>
<g filter="url(#filter4_f_11_3)">
<path d="M296.391 46.0469C296.313 46.0469 296.246 46.0195 296.191 45.9648C296.137 45.9102 296.109 45.8437 296.109 45.7656C296.109 45.6875 296.137 45.6211 296.191 45.5664C296.246 45.5117 296.313 45.4844 296.391 45.4844C296.469 45.4844 296.535 45.5117 296.59 45.5664C296.645 45.6211 296.672 45.6875 296.672 45.7656C296.672 45.8177 296.659 45.8659 296.633 45.9102C296.609 45.9518 296.576 45.9844 296.531 46.0078C296.49 46.0339 296.443 46.0469 296.391 46.0469Z" fill="white"/>
</g>
<g filter="url(#filter5_f_11_3)">
<path d="M208.391 18.0469C208.313 18.0469 208.246 18.0195 208.191 17.9648C208.137 17.9102 208.109 17.8437 208.109 17.7656C208.109 17.6875 208.137 17.6211 208.191 17.5664C208.246 17.5117 208.313 17.4844 208.391 17.4844C208.469 17.4844 208.535 17.5117 208.59 17.5664C208.645 17.6211 208.672 17.6875 208.672 17.7656C208.672 17.8177 208.659 17.8659 208.633 17.9102C208.609 17.9518 208.576 17.9844 208.531 18.0078C208.49 18.0339 208.443 18.0469 208.391 18.0469Z" fill="white"/>
</g>
<g filter="url(#filter6_f_11_3)">
<path d="M216.391 65.0469C216.313 65.0469 216.246 65.0195 216.191 64.9648C216.137 64.9102 216.109 64.8437 216.109 64.7656C216.109 64.6875 216.137 64.6211 216.191 64.5664C216.246 64.5117 216.313 64.4844 216.391 64.4844C216.469 64.4844 216.535 64.5117 216.59 64.5664C216.645 64.6211 216.672 64.6875 216.672 64.7656C216.672 64.8177 216.659 64.8659 216.633 64.9102C216.609 64.9518 216.576 64.9844 216.531 65.0078C216.49 65.0339 216.443 65.0469 216.391 65.0469Z" fill="white"/>
</g>
<g filter="url(#filter7_f_11_3)">
<path d="M272.391 121.047C272.313 121.047 272.246 121.02 272.191 120.965C272.137 120.91 272.109 120.844 272.109 120.766C272.109 120.688 272.137 120.621 272.191 120.566C272.246 120.512 272.313 120.484 272.391 120.484C272.469 120.484 272.535 120.512 272.59 120.566C272.645 120.621 272.672 120.688 272.672 120.766C272.672 120.818 272.659 120.866 272.633 120.91C272.609 120.952 272.576 120.984 272.531 121.008C272.49 121.034 272.443 121.047 272.391 121.047Z" fill="white"/>
</g>
<g filter="url(#filter8_f_11_3)">
<path d="M184.391 93.0469C184.313 93.0469 184.246 93.0195 184.191 92.9648C184.137 92.9102 184.109 92.8437 184.109 92.7656C184.109 92.6875 184.137 92.6211 184.191 92.5664C184.246 92.5117 184.313 92.4844 184.391 92.4844C184.469 92.4844 184.535 92.5117 184.59 92.5664C184.645 92.6211 184.672 92.6875 184.672 92.7656C184.672 92.8177 184.659 92.8659 184.633 92.9102C184.609 92.9518 184.576 92.9844 184.531 93.0078C184.49 93.0339 184.443 93.0469 184.391 93.0469Z" fill="white"/>
</g>
<g filter="url(#filter9_f_11_3)">
<path d="M192.391 140.047C192.313 140.047 192.246 140.02 192.191 139.965C192.137 139.91 192.109 139.844 192.109 139.766C192.109 139.688 192.137 139.621 192.191 139.566C192.246 139.512 192.313 139.484 192.391 139.484C192.469 139.484 192.535 139.512 192.59 139.566C192.645 139.621 192.672 139.688 192.672 139.766C192.672 139.818 192.659 139.866 192.633 139.91C192.609 139.952 192.576 139.984 192.531 140.008C192.49 140.034 192.443 140.047 192.391 140.047Z" fill="white"/>
</g>
<g filter="url(#filter10_f_11_3)">
<path d="M184.391 39.0469C184.313 39.0469 184.246 39.0195 184.191 38.9648C184.137 38.9102 184.109 38.8437 184.109 38.7656C184.109 38.6875 184.137 38.6211 184.191 38.5664C184.246 38.5117 184.313 38.4844 184.391 38.4844C184.469 38.4844 184.535 38.5117 184.59 38.5664C184.645 38.6211 184.672 38.6875 184.672 38.7656C184.672 38.8177 184.659 38.8659 184.633 38.9102C184.609 38.9518 184.576 38.9844 184.531 39.0078C184.49 39.0339 184.443 39.0469 184.391 39.0469Z" fill="white"/>
</g>
<g filter="url(#filter11_f_11_3)">
<path d="M96.3906 11.0469C96.3125 11.0469 96.2461 11.0195 96.1914 10.9648C96.1367 10.9102 96.1094 10.8437 96.1094 10.7656C96.1094 10.6875 96.1367 10.6211 96.1914 10.5664C96.2461 10.5117 96.3125 10.4844 96.3906 10.4844C96.4688 10.4844 96.5352 10.5117 96.5898 10.5664C96.6445 10.6211 96.6719 10.6875 96.6719 10.7656C96.6719 10.8177 96.6589 10.8659 96.6328 10.9102C96.6094 10.9518 96.5755 10.9844 96.5313 11.0078C96.4896 11.0339 96.4427 11.0469 96.3906 11.0469Z" fill="white"/>
</g>
<g filter="url(#filter12_f_11_3)">
<path d="M104.391 58.0469C104.313 58.0469 104.246 58.0195 104.191 57.9648C104.137 57.9102 104.109 57.8437 104.109 57.7656C104.109 57.6875 104.137 57.6211 104.191 57.5664C104.246 57.5117 104.313 57.4844 104.391 57.4844C104.469 57.4844 104.535 57.5117 104.59 57.5664C104.645 57.6211 104.672 57.6875 104.672 57.7656C104.672 57.8177 104.659 57.8659 104.633 57.9102C104.609 57.9518 104.576 57.9844 104.531 58.0078C104.49 58.0339 104.443 58.0469 104.391 58.0469Z" fill="white"/>
</g>
<g filter="url(#filter13_f_11_3)">
<path d="M102.391 121.047C102.313 121.047 102.246 121.02 102.191 120.965C102.137 120.91 102.109 120.844 102.109 120.766C102.109 120.688 102.137 120.621 102.191 120.566C102.246 120.512 102.313 120.484 102.391 120.484C102.469 120.484 102.535 120.512 102.59 120.566C102.645 120.621 102.672 120.688 102.672 120.766C102.672 120.818 102.659 120.866 102.633 120.91C102.609 120.952 102.576 120.984 102.531 121.008C102.49 121.034 102.443 121.047 102.391 121.047Z" fill="white"/>
</g>
<g filter="url(#filter14_f_11_3)">
<path d="M14.3906 93.0469C14.3125 93.0469 14.2461 93.0195 14.1914 92.9648C14.1367 92.9102 14.1094 92.8437 14.1094 92.7656C14.1094 92.6875 14.1367 92.6211 14.1914 92.5664C14.2461 92.5117 14.3125 92.4844 14.3906 92.4844C14.4688 92.4844 14.5352 92.5117 14.5898 92.5664C14.6445 92.6211 14.6719 92.6875 14.6719 92.7656C14.6719 92.8177 14.6589 92.8659 14.6328 92.9102C14.6094 92.9518 14.5755 92.9844 14.5313 93.0078C14.4896 93.0339 14.4427 93.0469 14.3906 93.0469Z" fill="white"/>
</g>
<g filter="url(#filter15_f_11_3)">
<path d="M22.3906 140.047C22.3125 140.047 22.2461 140.02 22.1914 139.965C22.1367 139.91 22.1094 139.844 22.1094 139.766C22.1094 139.688 22.1367 139.621 22.1914 139.566C22.2461 139.512 22.3125 139.484 22.3906 139.484C22.4688 139.484 22.5352 139.512 22.5898 139.566C22.6445 139.621 22.6719 139.688 22.6719 139.766C22.6719 139.818 22.6589 139.866 22.6328 139.91C22.6094 139.952 22.5755 139.984 22.5313 140.008C22.4896 140.034 22.4427 140.047 22.3906 140.047Z" fill="white"/>
</g>
<g filter="url(#filter16_f_11_3)">
<path d="M254.391 132.047C254.313 132.047 254.246 132.02 254.191 131.965C254.137 131.91 254.109 131.844 254.109 131.766C254.109 131.688 254.137 131.621 254.191 131.566C254.246 131.512 254.313 131.484 254.391 131.484C254.469 131.484 254.535 131.512 254.59 131.566C254.645 131.621 254.672 131.688 254.672 131.766C254.672 131.818 254.659 131.866 254.633 131.91C254.609 131.952 254.576 131.984 254.531 132.008C254.49 132.034 254.443 132.047 254.391 132.047Z" fill="white"/>
</g>
<g filter="url(#filter17_f_11_3)">
<path d="M166.391 104.047C166.313 104.047 166.246 104.02 166.191 103.965C166.137 103.91 166.109 103.844 166.109 103.766C166.109 103.688 166.137 103.621 166.191 103.566C166.246 103.512 166.313 103.484 166.391 103.484C166.469 103.484 166.535 103.512 166.59 103.566C166.645 103.621 166.672 103.688 166.672 103.766C166.672 103.818 166.659 103.866 166.633 103.91C166.609 103.952 166.576 103.984 166.531 104.008C166.49 104.034 166.443 104.047 166.391 104.047Z" fill="white"/>
</g>
<g filter="url(#filter18_f_11_3)">
<path d="M174.391 151.047C174.313 151.047 174.246 151.02 174.191 150.965C174.137 150.91 174.109 150.844 174.109 150.766C174.109 150.688 174.137 150.621 174.191 150.566C174.246 150.512 174.313 150.484 174.391 150.484C174.469 150.484 174.535 150.512 174.59 150.566C174.645 150.621 174.672 150.688 174.672 150.766C174.672 150.818 174.659 150.866 174.633 150.91C174.609 150.952 174.576 150.984 174.531 151.008C174.49 151.034 174.443 151.047 174.391 151.047Z" fill="white"/>
</g>
<g filter="url(#filter19_f_11_3)">
<path d="M324.391 130.047C324.313 130.047 324.246 130.02 324.191 129.965C324.137 129.91 324.109 129.844 324.109 129.766C324.109 129.688 324.137 129.621 324.191 129.566C324.246 129.512 324.313 129.484 324.391 129.484C324.469 129.484 324.535 129.512 324.59 129.566C324.645 129.621 324.672 129.688 324.672 129.766C324.672 129.818 324.659 129.866 324.633 129.91C324.609 129.952 324.576 129.984 324.531 130.008C324.49 130.034 324.443 130.047 324.391 130.047Z" fill="white"/>
</g>
<g filter="url(#filter20_f_11_3)">
<path d="M236.391 102.047C236.313 102.047 236.246 102.02 236.191 101.965C236.137 101.91 236.109 101.844 236.109 101.766C236.109 101.688 236.137 101.621 236.191 101.566C236.246 101.512 236.313 101.484 236.391 101.484C236.469 101.484 236.535 101.512 236.59 101.566C236.645 101.621 236.672 101.688 236.672 101.766C236.672 101.818 236.659 101.866 236.633 101.91C236.609 101.952 236.576 101.984 236.531 102.008C236.49 102.034 236.443 102.047 236.391 102.047Z" fill="white"/>
</g>
<g filter="url(#filter21_f_11_3)">
<path d="M244.391 149.047C244.313 149.047 244.246 149.02 244.191 148.965C244.137 148.91 244.109 148.844 244.109 148.766C244.109 148.688 244.137 148.621 244.191 148.566C244.246 148.512 244.313 148.484 244.391 148.484C244.469 148.484 244.535 148.512 244.59 148.566C244.645 148.621 244.672 148.688 244.672 148.766C244.672 148.818 244.659 148.866 244.633 148.91C244.609 148.952 244.576 148.984 244.531 149.008C244.49 149.034 244.443 149.047 244.391 149.047Z" fill="white"/>
</g>
<g filter="url(#filter22_f_11_3)">
<path d="M394.391 85.0469C394.313 85.0469 394.246 85.0195 394.191 84.9648C394.137 84.9102 394.109 84.8437 394.109 84.7656C394.109 84.6875 394.137 84.6211 394.191 84.5664C394.246 84.5117 394.313 84.4844 394.391 84.4844C394.469 84.4844 394.535 84.5117 394.59 84.5664C394.645 84.6211 394.672 84.6875 394.672 84.7656C394.672 84.8177 394.659 84.8659 394.633 84.9102C394.609 84.9518 394.576 84.9844 394.531 85.0078C394.49 85.0339 394.443 85.0469 394.391 85.0469Z" fill="white"/>
</g>
<g filter="url(#filter23_f_11_3)">
<path d="M402.391 132.047C402.313 132.047 402.246 132.02 402.191 131.965C402.137 131.91 402.109 131.844 402.109 131.766C402.109 131.688 402.137 131.621 402.191 131.566C402.246 131.512 402.313 131.484 402.391 131.484C402.469 131.484 402.535 131.512 402.59 131.566C402.645 131.621 402.672 131.688 402.672 131.766C402.672 131.818 402.659 131.866 402.633 131.91C402.609 131.952 402.576 131.984 402.531 132.008C402.49 132.034 402.443 132.047 402.391 132.047Z" fill="white"/>
</g>
<g filter="url(#filter24_f_11_3)">
<path d="M370.391 160.047C370.313 160.047 370.246 160.02 370.191 159.965C370.137 159.91 370.109 159.844 370.109 159.766C370.109 159.688 370.137 159.621 370.191 159.566C370.246 159.512 370.313 159.484 370.391 159.484C370.469 159.484 370.535 159.512 370.59 159.566C370.645 159.621 370.672 159.688 370.672 159.766C370.672 159.818 370.659 159.866 370.633 159.91C370.609 159.952 370.576 159.984 370.531 160.008C370.49 160.034 370.443 160.047 370.391 160.047Z" fill="white"/>
</g>
<g filter="url(#filter25_f_11_3)">
<path d="M378.391 207.047C378.313 207.047 378.246 207.02 378.191 206.965C378.137 206.91 378.109 206.844 378.109 206.766C378.109 206.688 378.137 206.621 378.191 206.566C378.246 206.512 378.313 206.484 378.391 206.484C378.469 206.484 378.535 206.512 378.59 206.566C378.645 206.621 378.672 206.688 378.672 206.766C378.672 206.818 378.659 206.866 378.633 206.91C378.609 206.952 378.576 206.984 378.531 207.008C378.49 207.034 378.443 207.047 378.391 207.047Z" fill="white"/>
</g>
<g filter="url(#filter26_f_11_3)">
<path d="M370.391 106.047C370.313 106.047 370.246 106.02 370.191 105.965C370.137 105.91 370.109 105.844 370.109 105.766C370.109 105.688 370.137 105.621 370.191 105.566C370.246 105.512 370.313 105.484 370.391 105.484C370.469 105.484 370.535 105.512 370.59 105.566C370.645 105.621 370.672 105.688 370.672 105.766C370.672 105.818 370.659 105.866 370.633 105.91C370.609 105.952 370.576 105.984 370.531 106.008C370.49 106.034 370.443 106.047 370.391 106.047Z" fill="white"/>
</g>
<g filter="url(#filter27_f_11_3)">
<path d="M282.391 78.0469C282.313 78.0469 282.246 78.0195 282.191 77.9648C282.137 77.9102 282.109 77.8437 282.109 77.7656C282.109 77.6875 282.137 77.6211 282.191 77.5664C282.246 77.5117 282.313 77.4844 282.391 77.4844C282.469 77.4844 282.535 77.5117 282.59 77.5664C282.645 77.6211 282.672 77.6875 282.672 77.7656C282.672 77.8177 282.659 77.8659 282.633 77.9102C282.609 77.9518 282.576 77.9844 282.531 78.0078C282.49 78.0339 282.443 78.0469 282.391 78.0469Z" fill="white"/>
</g>
<g filter="url(#filter28_f_11_3)">
<path d="M290.391 125.047C290.313 125.047 290.246 125.02 290.191 124.965C290.137 124.91 290.109 124.844 290.109 124.766C290.109 124.688 290.137 124.621 290.191 124.566C290.246 124.512 290.313 124.484 290.391 124.484C290.469 124.484 290.535 124.512 290.59 124.566C290.645 124.621 290.672 124.688 290.672 124.766C290.672 124.818 290.659 124.866 290.633 124.91C290.609 124.952 290.576 124.984 290.531 125.008C290.49 125.034 290.443 125.047 290.391 125.047Z" fill="white"/>
</g>
<g filter="url(#filter29_f_11_3)">
<path d="M288.391 188.047C288.313 188.047 288.246 188.02 288.191 187.965C288.137 187.91 288.109 187.844 288.109 187.766C288.109 187.688 288.137 187.621 288.191 187.566C288.246 187.512 288.313 187.484 288.391 187.484C288.469 187.484 288.535 187.512 288.59 187.566C288.645 187.621 288.672 187.688 288.672 187.766C288.672 187.818 288.659 187.866 288.633 187.91C288.609 187.952 288.576 187.984 288.531 188.008C288.49 188.034 288.443 188.047 288.391 188.047Z" fill="white"/>
</g>
<g filter="url(#filter30_f_11_3)">
<path d="M208.391 207.047C208.313 207.047 208.246 207.02 208.191 206.965C208.137 206.91 208.109 206.844 208.109 206.766C208.109 206.688 208.137 206.621 208.191 206.566C208.246 206.512 208.313 206.484 208.391 206.484C208.469 206.484 208.535 206.512 208.59 206.566C208.645 206.621 208.672 206.688 208.672 206.766C208.672 206.818 208.659 206.866 208.633 206.91C208.609 206.952 208.576 206.984 208.531 207.008C208.49 207.034 208.443 207.047 208.391 207.047Z" fill="white"/>
</g>
<g filter="url(#filter31_f_11_3)">
<path d="M352.391 171.047C352.313 171.047 352.246 171.02 352.191 170.965C352.137 170.91 352.109 170.844 352.109 170.766C352.109 170.688 352.137 170.621 352.191 170.566C352.246 170.512 352.313 170.484 352.391 170.484C352.469 170.484 352.535 170.512 352.59 170.566C352.645 170.621 352.672 170.688 352.672 170.766C352.672 170.818 352.659 170.866 352.633 170.91C352.609 170.952 352.576 170.984 352.531 171.008C352.49 171.034 352.443 171.047 352.391 171.047Z" fill="white"/>
</g>
<g filter="url(#filter32_f_11_3)">
<path d="M360.391 218.047C360.313 218.047 360.246 218.02 360.191 217.965C360.137 217.91 360.109 217.844 360.109 217.766C360.109 217.688 360.137 217.621 360.191 217.566C360.246 217.512 360.313 217.484 360.391 217.484C360.469 217.484 360.535 217.512 360.59 217.566C360.645 217.621 360.672 217.688 360.672 217.766C360.672 217.818 360.659 217.866 360.633 217.91C360.609 217.952 360.576 217.984 360.531 218.008C360.49 218.034 360.443 218.047 360.391 218.047Z" fill="white"/>
</g>
<g filter="url(#filter33_f_11_3)">
<path d="M490.391 56.0469C490.313 56.0469 490.246 56.0195 490.191 55.9648C490.137 55.9102 490.109 55.8437 490.109 55.7656C490.109 55.6875 490.137 55.6211 490.191 55.5664C490.246 55.5117 490.313 55.4844 490.391 55.4844C490.469 55.4844 490.535 55.5117 490.59 55.5664C490.645 55.6211 490.672 55.6875 490.672 55.7656C490.672 55.8177 490.659 55.8659 490.633 55.9102C490.609 55.9518 490.576 55.9844 490.531 56.0078C490.49 56.0339 490.443 56.0469 490.391 56.0469Z" fill="white"/>
</g>
<g filter="url(#filter34_f_11_3)">
<path d="M402.391 28.0469C402.313 28.0469 402.246 28.0195 402.191 27.9648C402.137 27.9102 402.109 27.8437 402.109 27.7656C402.109 27.6875 402.137 27.6211 402.191 27.5664C402.246 27.5117 402.313 27.4844 402.391 27.4844C402.469 27.4844 402.535 27.5117 402.59 27.5664C402.645 27.6211 402.672 27.6875 402.672 27.7656C402.672 27.8177 402.659 27.8659 402.633 27.9102C402.609 27.9518 402.576 27.9844 402.531 28.0078C402.49 28.0339 402.443 28.0469 402.391 28.0469Z" fill="white"/>
</g>
<g filter="url(#filter35_f_11_3)">
<path d="M410.391 75.0469C410.313 75.0469 410.246 75.0195 410.191 74.9648C410.137 74.9102 410.109 74.8437 410.109 74.7656C410.109 74.6875 410.137 74.6211 410.191 74.5664C410.246 74.5117 410.313 74.4844 410.391 74.4844C410.469 74.4844 410.535 74.5117 410.59 74.5664C410.645 74.6211 410.672 74.6875 410.672 74.7656C410.672 74.8177 410.659 74.8659 410.633 74.9102C410.609 74.9518 410.576 74.9844 410.531 75.0078C410.49 75.0339 410.443 75.0469 410.391 75.0469Z" fill="white"/>
</g>
<g filter="url(#filter36_f_11_3)">
<path d="M560.391 11.0469C560.313 11.0469 560.246 11.0195 560.191 10.9648C560.137 10.9102 560.109 10.8437 560.109 10.7656C560.109 10.6875 560.137 10.6211 560.191 10.5664C560.246 10.5117 560.313 10.4844 560.391 10.4844C560.469 10.4844 560.535 10.5117 560.59 10.5664C560.645 10.6211 560.672 10.6875 560.672 10.7656C560.672 10.8177 560.659 10.8659 560.633 10.9102C560.609 10.9518 560.576 10.9844 560.531 11.0078C560.49 11.0339 560.443 11.0469 560.391 11.0469Z" fill="white"/>
</g>
<g filter="url(#filter37_f_11_3)">
<path d="M536.391 86.0469C536.313 86.0469 536.246 86.0195 536.191 85.9648C536.137 85.9102 536.109 85.8437 536.109 85.7656C536.109 85.6875 536.137 85.6211 536.191 85.5664C536.246 85.5117 536.313 85.4844 536.391 85.4844C536.469 85.4844 536.535 85.5117 536.59 85.5664C536.645 85.6211 536.672 85.6875 536.672 85.7656C536.672 85.8177 536.659 85.8659 536.633 85.9102C536.609 85.9518 536.576 85.9844 536.531 86.0078C536.49 86.0339 536.443 86.0469 536.391 86.0469Z" fill="white"/>
</g>
<g filter="url(#filter38_f_11_3)">
<path d="M544.391 133.047C544.313 133.047 544.246 133.02 544.191 132.965C544.137 132.91 544.109 132.844 544.109 132.766C544.109 132.688 544.137 132.621 544.191 132.566C544.246 132.512 544.313 132.484 544.391 132.484C544.469 132.484 544.535 132.512 544.59 132.566C544.645 132.621 544.672 132.688 544.672 132.766C544.672 132.818 544.659 132.866 544.633 132.91C544.609 132.952 544.576 132.984 544.531 133.008C544.49 133.034 544.443 133.047 544.391 133.047Z" fill="white"/>
</g>
<g filter="url(#filter39_f_11_3)">
<path d="M536.391 32.0469C536.313 32.0469 536.246 32.0195 536.191 31.9648C536.137 31.9102 536.109 31.8437 536.109 31.7656C536.109 31.6875 536.137 31.6211 536.191 31.5664C536.246 31.5117 536.313 31.4844 536.391 31.4844C536.469 31.4844 536.535 31.5117 536.59 31.5664C536.645 31.6211 536.672 31.6875 536.672 31.7656C536.672 31.8177 536.659 31.8659 536.633 31.9102C536.609 31.9518 536.576 31.9844 536.531 32.0078C536.49 32.0339 536.443 32.0469 536.391 32.0469Z" fill="white"/>
</g>
<g filter="url(#filter40_f_11_3)">
<path d="M448.391 4.04688C448.313 4.04688 448.246 4.01953 448.191 3.96484C448.137 3.91016 448.109 3.84375 448.109 3.76562C448.109 3.6875 448.137 3.62109 448.191 3.56641C448.246 3.51172 448.313 3.48438 448.391 3.48438C448.469 3.48438 448.535 3.51172 448.59 3.56641C448.645 3.62109 448.672 3.6875 448.672 3.76562C448.672 3.81771 448.659 3.86589 448.633 3.91016C448.609 3.95182 448.576 3.98438 448.531 4.00781C448.49 4.03385 448.443 4.04688 448.391 4.04688Z" fill="white"/>
</g>
<g filter="url(#filter41_f_11_3)">
<path d="M456.391 51.0469C456.313 51.0469 456.246 51.0195 456.191 50.9648C456.137 50.9102 456.109 50.8437 456.109 50.7656C456.109 50.6875 456.137 50.6211 456.191 50.5664C456.246 50.5117 456.313 50.4844 456.391 50.4844C456.469 50.4844 456.535 50.5117 456.59 50.5664C456.645 50.6211 456.672 50.6875 456.672 50.7656C456.672 50.8177 456.659 50.8659 456.633 50.9102C456.609 50.9518 456.576 50.9844 456.531 51.0078C456.49 51.0339 456.443 51.0469 456.391 51.0469Z" fill="white"/>
</g>
<g filter="url(#filter42_f_11_3)">
<path d="M454.391 114.047C454.313 114.047 454.246 114.02 454.191 113.965C454.137 113.91 454.109 113.844 454.109 113.766C454.109 113.688 454.137 113.621 454.191 113.566C454.246 113.512 454.313 113.484 454.391 113.484C454.469 113.484 454.535 113.512 454.59 113.566C454.645 113.621 454.672 113.688 454.672 113.766C454.672 113.818 454.659 113.866 454.633 113.91C454.609 113.952 454.576 113.984 454.531 114.008C454.49 114.034 454.443 114.047 454.391 114.047Z" fill="white"/>
</g>
<g filter="url(#filter43_f_11_3)">
<path d="M374.391 133.047C374.313 133.047 374.246 133.02 374.191 132.965C374.137 132.91 374.109 132.844 374.109 132.766C374.109 132.688 374.137 132.621 374.191 132.566C374.246 132.512 374.313 132.484 374.391 132.484C374.469 132.484 374.535 132.512 374.59 132.566C374.645 132.621 374.672 132.688 374.672 132.766C374.672 132.818 374.659 132.866 374.633 132.91C374.609 132.952 374.576 132.984 374.531 133.008C374.49 133.034 374.443 133.047 374.391 133.047Z" fill="white"/>
</g>
<g filter="url(#filter44_f_11_3)">
<path d="M518.391 97.0469C518.313 97.0469 518.246 97.0195 518.191 96.9648C518.137 96.9102 518.109 96.8437 518.109 96.7656C518.109 96.6875 518.137 96.6211 518.191 96.5664C518.246 96.5117 518.313 96.4844 518.391 96.4844C518.469 96.4844 518.535 96.5117 518.59 96.5664C518.645 96.6211 518.672 96.6875 518.672 96.7656C518.672 96.8177 518.659 96.8659 518.633 96.9102C518.609 96.9518 518.576 96.9844 518.531 97.0078C518.49 97.0339 518.443 97.0469 518.391 97.0469Z" fill="white"/>
</g>
<g filter="url(#filter45_f_11_3)">
<path d="M526.391 144.047C526.313 144.047 526.246 144.02 526.191 143.965C526.137 143.91 526.109 143.844 526.109 143.766C526.109 143.688 526.137 143.621 526.191 143.566C526.246 143.512 526.313 143.484 526.391 143.484C526.469 143.484 526.535 143.512 526.59 143.566C526.645 143.621 526.672 143.688 526.672 143.766C526.672 143.818 526.659 143.866 526.633 143.91C526.609 143.952 526.576 143.984 526.531 144.008C526.49 144.034 526.443 144.047 526.391 144.047Z" fill="white"/>
</g>
<g filter="url(#filter46_f_11_3)">
<path d="M115.391 239.047C115.313 239.047 115.246 239.02 115.191 238.965C115.137 238.91 115.109 238.844 115.109 238.766C115.109 238.688 115.137 238.621 115.191 238.566C115.246 238.512 115.313 238.484 115.391 238.484C115.469 238.484 115.535 238.512 115.59 238.566C115.645 238.621 115.672 238.688 115.672 238.766C115.672 238.818 115.659 238.866 115.633 238.91C115.609 238.952 115.576 238.984 115.531 239.008C115.49 239.034 115.443 239.047 115.391 239.047Z" fill="white"/>
</g>
<g filter="url(#filter47_f_11_3)">
<path d="M27.3906 211.047C27.3125 211.047 27.2461 211.02 27.1914 210.965C27.1367 210.91 27.1094 210.844 27.1094 210.766C27.1094 210.688 27.1367 210.621 27.1914 210.566C27.2461 210.512 27.3125 210.484 27.3906 210.484C27.4688 210.484 27.5352 210.512 27.5898 210.566C27.6445 210.621 27.6719 210.688 27.6719 210.766C27.6719 210.818 27.6589 210.866 27.6328 210.91C27.6094 210.952 27.5755 210.984 27.5313 211.008C27.4896 211.034 27.4427 211.047 27.3906 211.047Z" fill="white"/>
</g>
<g filter="url(#filter48_f_11_3)">
<path d="M35.3906 258.047C35.3125 258.047 35.2461 258.02 35.1914 257.965C35.1367 257.91 35.1094 257.844 35.1094 257.766C35.1094 257.688 35.1367 257.621 35.1914 257.566C35.2461 257.512 35.3125 257.484 35.3906 257.484C35.4688 257.484 35.5352 257.512 35.5898 257.566C35.6445 257.621 35.6719 257.688 35.6719 257.766C35.6719 257.818 35.6589 257.866 35.6328 257.91C35.6094 257.952 35.5755 257.984 35.5313 258.008C35.4896 258.034 35.4427 258.047 35.3906 258.047Z" fill="white"/>
</g>
<g filter="url(#filter49_f_11_3)">
<path d="M185.391 194.047C185.313 194.047 185.246 194.02 185.191 193.965C185.137 193.91 185.109 193.844 185.109 193.766C185.109 193.688 185.137 193.621 185.191 193.566C185.246 193.512 185.313 193.484 185.391 193.484C185.469 193.484 185.535 193.512 185.59 193.566C185.645 193.621 185.672 193.688 185.672 193.766C185.672 193.818 185.659 193.866 185.633 193.91C185.609 193.952 185.576 193.984 185.531 194.008C185.49 194.034 185.443 194.047 185.391 194.047Z" fill="white"/>
</g>
<g filter="url(#filter50_f_11_3)">
<path d="M193.391 241.047C193.313 241.047 193.246 241.02 193.191 240.965C193.137 240.91 193.109 240.844 193.109 240.766C193.109 240.688 193.137 240.621 193.191 240.566C193.246 240.512 193.313 240.484 193.391 240.484C193.469 240.484 193.535 240.512 193.59 240.566C193.645 240.621 193.672 240.688 193.672 240.766C193.672 240.818 193.659 240.866 193.633 240.91C193.609 240.952 193.576 240.984 193.531 241.008C193.49 241.034 193.443 241.047 193.391 241.047Z" fill="white"/>
</g>
<g filter="url(#filter51_f_11_3)">
<path d="M161.391 269.047C161.313 269.047 161.246 269.02 161.191 268.965C161.137 268.91 161.109 268.844 161.109 268.766C161.109 268.688 161.137 268.621 161.191 268.566C161.246 268.512 161.313 268.484 161.391 268.484C161.469 268.484 161.535 268.512 161.59 268.566C161.645 268.621 161.672 268.688 161.672 268.766C161.672 268.818 161.659 268.866 161.633 268.91C161.609 268.952 161.576 268.984 161.531 269.008C161.49 269.034 161.443 269.047 161.391 269.047Z" fill="white"/>
</g>
<g filter="url(#filter52_f_11_3)">
<path d="M161.391 215.047C161.313 215.047 161.246 215.02 161.191 214.965C161.137 214.91 161.109 214.844 161.109 214.766C161.109 214.688 161.137 214.621 161.191 214.566C161.246 214.512 161.313 214.484 161.391 214.484C161.469 214.484 161.535 214.512 161.59 214.566C161.645 214.621 161.672 214.688 161.672 214.766C161.672 214.818 161.659 214.866 161.633 214.91C161.609 214.952 161.576 214.984 161.531 215.008C161.49 215.034 161.443 215.047 161.391 215.047Z" fill="white"/>
</g>
<g filter="url(#filter53_f_11_3)">
<path d="M73.3906 187.047C73.3125 187.047 73.2461 187.02 73.1914 186.965C73.1367 186.91 73.1094 186.844 73.1094 186.766C73.1094 186.688 73.1367 186.621 73.1914 186.566C73.2461 186.512 73.3125 186.484 73.3906 186.484C73.4688 186.484 73.5352 186.512 73.5898 186.566C73.6445 186.621 73.6719 186.688 73.6719 186.766C73.6719 186.818 73.6589 186.866 73.6328 186.91C73.6094 186.952 73.5755 186.984 73.5313 187.008C73.4896 187.034 73.4427 187.047 73.3906 187.047Z" fill="white"/>
</g>
<g filter="url(#filter54_f_11_3)">
<path d="M81.3906 234.047C81.3125 234.047 81.2461 234.02 81.1914 233.965C81.1367 233.91 81.1094 233.844 81.1094 233.766C81.1094 233.688 81.1367 233.621 81.1914 233.566C81.2461 233.512 81.3125 233.484 81.3906 233.484C81.4688 233.484 81.5352 233.512 81.5898 233.566C81.6445 233.621 81.6719 233.688 81.6719 233.766C81.6719 233.818 81.6589 233.866 81.6328 233.91C81.6094 233.952 81.5755 233.984 81.5313 234.008C81.4896 234.034 81.4427 234.047 81.3906 234.047Z" fill="white"/>
</g>
<g filter="url(#filter55_f_11_3)">
<path d="M143.391 280.047C143.313 280.047 143.246 280.02 143.191 279.965C143.137 279.91 143.109 279.844 143.109 279.766C143.109 279.688 143.137 279.621 143.191 279.566C143.246 279.512 143.313 279.484 143.391 279.484C143.469 279.484 143.535 279.512 143.59 279.566C143.645 279.621 143.672 279.688 143.672 279.766C143.672 279.818 143.659 279.866 143.633 279.91C143.609 279.952 143.576 279.984 143.531 280.008C143.49 280.034 143.443 280.047 143.391 280.047Z" fill="white"/>
</g>
<g filter="url(#filter56_f_11_3)">
<path d="M321.391 262.047C321.313 262.047 321.246 262.02 321.191 261.965C321.137 261.91 321.109 261.844 321.109 261.766C321.109 261.688 321.137 261.621 321.191 261.566C321.246 261.512 321.313 261.484 321.391 261.484C321.469 261.484 321.535 261.512 321.59 261.566C321.645 261.621 321.672 261.688 321.672 261.766C321.672 261.818 321.659 261.866 321.633 261.91C321.609 261.952 321.576 261.984 321.531 262.008C321.49 262.034 321.443 262.047 321.391 262.047Z" fill="white"/>
</g>
<g filter="url(#filter57_f_11_3)">
<path d="M233.391 234.047C233.313 234.047 233.246 234.02 233.191 233.965C233.137 233.91 233.109 233.844 233.109 233.766C233.109 233.688 233.137 233.621 233.191 233.566C233.246 233.512 233.313 233.484 233.391 233.484C233.469 233.484 233.535 233.512 233.59 233.566C233.645 233.621 233.672 233.688 233.672 233.766C233.672 233.818 233.659 233.866 233.633 233.91C233.609 233.952 233.576 233.984 233.531 234.008C233.49 234.034 233.443 234.047 233.391 234.047Z" fill="white"/>
</g>
<g filter="url(#filter58_f_11_3)">
<path d="M241.391 281.047C241.313 281.047 241.246 281.02 241.191 280.965C241.137 280.91 241.109 280.844 241.109 280.766C241.109 280.688 241.137 280.621 241.191 280.566C241.246 280.512 241.313 280.484 241.391 280.484C241.469 280.484 241.535 280.512 241.59 280.566C241.645 280.621 241.672 280.688 241.672 280.766C241.672 280.818 241.659 280.866 241.633 280.91C241.609 280.952 241.576 280.984 241.531 281.008C241.49 281.034 241.443 281.047 241.391 281.047Z" fill="white"/>
</g>
<g filter="url(#filter59_f_11_3)">
<path d="M391.391 217.047C391.313 217.047 391.246 217.02 391.191 216.965C391.137 216.91 391.109 216.844 391.109 216.766C391.109 216.688 391.137 216.621 391.191 216.566C391.246 216.512 391.313 216.484 391.391 216.484C391.469 216.484 391.535 216.512 391.59 216.566C391.645 216.621 391.672 216.688 391.672 216.766C391.672 216.818 391.659 216.866 391.633 216.91C391.609 216.952 391.576 216.984 391.531 217.008C391.49 217.034 391.443 217.047 391.391 217.047Z" fill="white"/>
</g>
<g filter="url(#filter60_f_11_3)">
<path d="M399.391 264.047C399.313 264.047 399.246 264.02 399.191 263.965C399.137 263.91 399.109 263.844 399.109 263.766C399.109 263.688 399.137 263.621 399.191 263.566C399.246 263.512 399.313 263.484 399.391 263.484C399.469 263.484 399.535 263.512 399.59 263.566C399.645 263.621 399.672 263.688 399.672 263.766C399.672 263.818 399.659 263.866 399.633 263.91C399.609 263.952 399.576 263.984 399.531 264.008C399.49 264.034 399.443 264.047 399.391 264.047Z" fill="white"/>
</g>
<g filter="url(#filter61_f_11_3)">
<path d="M367.391 292.047C367.313 292.047 367.246 292.02 367.191 291.965C367.137 291.91 367.109 291.844 367.109 291.766C367.109 291.688 367.137 291.621 367.191 291.566C367.246 291.512 367.313 291.484 367.391 291.484C367.469 291.484 367.535 291.512 367.59 291.566C367.645 291.621 367.672 291.688 367.672 291.766C367.672 291.818 367.659 291.866 367.633 291.91C367.609 291.952 367.576 291.984 367.531 292.008C367.49 292.034 367.443 292.047 367.391 292.047Z" fill="white"/>
</g>
<g filter="url(#filter62_f_11_3)">
<path d="M367.391 238.047C367.313 238.047 367.246 238.02 367.191 237.965C367.137 237.91 367.109 237.844 367.109 237.766C367.109 237.688 367.137 237.621 367.191 237.566C367.246 237.512 367.313 237.484 367.391 237.484C367.469 237.484 367.535 237.512 367.59 237.566C367.645 237.621 367.672 237.688 367.672 237.766C367.672 237.818 367.659 237.866 367.633 237.91C367.609 237.952 367.576 237.984 367.531 238.008C367.49 238.034 367.443 238.047 367.391 238.047Z" fill="white"/>
</g>
<g filter="url(#filter63_f_11_3)">
<path d="M279.391 210.047C279.313 210.047 279.246 210.02 279.191 209.965C279.137 209.91 279.109 209.844 279.109 209.766C279.109 209.688 279.137 209.621 279.191 209.566C279.246 209.512 279.313 209.484 279.391 209.484C279.469 209.484 279.535 209.512 279.59 209.566C279.645 209.621 279.672 209.688 279.672 209.766C279.672 209.818 279.659 209.866 279.633 209.91C279.609 209.952 279.576 209.984 279.531 210.008C279.49 210.034 279.443 210.047 279.391 210.047Z" fill="white"/>
</g>
<g filter="url(#filter64_f_11_3)">
<path d="M287.391 257.047C287.313 257.047 287.246 257.02 287.191 256.965C287.137 256.91 287.109 256.844 287.109 256.766C287.109 256.688 287.137 256.621 287.191 256.566C287.246 256.512 287.313 256.484 287.391 256.484C287.469 256.484 287.535 256.512 287.59 256.566C287.645 256.621 287.672 256.688 287.672 256.766C287.672 256.818 287.659 256.866 287.633 256.91C287.609 256.952 287.576 256.984 287.531 257.008C287.49 257.034 287.443 257.047 287.391 257.047Z" fill="white"/>
</g>
<g filter="url(#filter65_f_11_3)">
<path d="M501.391 199.047C501.313 199.047 501.246 199.02 501.191 198.965C501.137 198.91 501.109 198.844 501.109 198.766C501.109 198.688 501.137 198.621 501.191 198.566C501.246 198.512 501.313 198.484 501.391 198.484C501.469 198.484 501.535 198.512 501.59 198.566C501.645 198.621 501.672 198.688 501.672 198.766C501.672 198.818 501.659 198.866 501.633 198.91C501.609 198.952 501.576 198.984 501.531 199.008C501.49 199.034 501.443 199.047 501.391 199.047Z" fill="white"/>
</g>
<g filter="url(#filter66_f_11_3)">
<path d="M413.391 171.047C413.313 171.047 413.246 171.02 413.191 170.965C413.137 170.91 413.109 170.844 413.109 170.766C413.109 170.688 413.137 170.621 413.191 170.566C413.246 170.512 413.313 170.484 413.391 170.484C413.469 170.484 413.535 170.512 413.59 170.566C413.645 170.621 413.672 170.688 413.672 170.766C413.672 170.818 413.659 170.866 413.633 170.91C413.609 170.952 413.576 170.984 413.531 171.008C413.49 171.034 413.443 171.047 413.391 171.047Z" fill="white"/>
</g>
<g filter="url(#filter67_f_11_3)">
<path d="M421.391 218.047C421.313 218.047 421.246 218.02 421.191 217.965C421.137 217.91 421.109 217.844 421.109 217.766C421.109 217.688 421.137 217.621 421.191 217.566C421.246 217.512 421.313 217.484 421.391 217.484C421.469 217.484 421.535 217.512 421.59 217.566C421.645 217.621 421.672 217.688 421.672 217.766C421.672 217.818 421.659 217.866 421.633 217.91C421.609 217.952 421.576 217.984 421.531 218.008C421.49 218.034 421.443 218.047 421.391 218.047Z" fill="white"/>
</g>
<g filter="url(#filter68_f_11_3)">
<path d="M547.391 229.047C547.313 229.047 547.246 229.02 547.191 228.965C547.137 228.91 547.109 228.844 547.109 228.766C547.109 228.688 547.137 228.621 547.191 228.566C547.246 228.512 547.313 228.484 547.391 228.484C547.469 228.484 547.535 228.512 547.59 228.566C547.645 228.621 547.672 228.688 547.672 228.766C547.672 228.818 547.659 228.866 547.633 228.91C547.609 228.952 547.576 228.984 547.531 229.008C547.49 229.034 547.443 229.047 547.391 229.047Z" fill="white"/>
</g>
<g filter="url(#filter69_f_11_3)">
<path d="M555.391 276.047C555.313 276.047 555.246 276.02 555.191 275.965C555.137 275.91 555.109 275.844 555.109 275.766C555.109 275.688 555.137 275.621 555.191 275.566C555.246 275.512 555.313 275.484 555.391 275.484C555.469 275.484 555.535 275.512 555.59 275.566C555.645 275.621 555.672 275.688 555.672 275.766C555.672 275.818 555.659 275.866 555.633 275.91C555.609 275.952 555.576 275.984 555.531 276.008C555.49 276.034 555.443 276.047 555.391 276.047Z" fill="white"/>
</g>
<g filter="url(#filter70_f_11_3)">
<path d="M547.391 175.047C547.313 175.047 547.246 175.02 547.191 174.965C547.137 174.91 547.109 174.844 547.109 174.766C547.109 174.688 547.137 174.621 547.191 174.566C547.246 174.512 547.313 174.484 547.391 174.484C547.469 174.484 547.535 174.512 547.59 174.566C547.645 174.621 547.672 174.688 547.672 174.766C547.672 174.818 547.659 174.866 547.633 174.91C547.609 174.952 547.576 174.984 547.531 175.008C547.49 175.034 547.443 175.047 547.391 175.047Z" fill="white"/>
</g>
<g filter="url(#filter71_f_11_3)">
<path d="M459.391 147.047C459.313 147.047 459.246 147.02 459.191 146.965C459.137 146.91 459.109 146.844 459.109 146.766C459.109 146.688 459.137 146.621 459.191 146.566C459.246 146.512 459.313 146.484 459.391 146.484C459.469 146.484 459.535 146.512 459.59 146.566C459.645 146.621 459.672 146.688 459.672 146.766C459.672 146.818 459.659 146.866 459.633 146.91C459.609 146.952 459.576 146.984 459.531 147.008C459.49 147.034 459.443 147.047 459.391 147.047Z" fill="white"/>
</g>
<g filter="url(#filter72_f_11_3)">
<path d="M467.391 194.047C467.313 194.047 467.246 194.02 467.191 193.965C467.137 193.91 467.109 193.844 467.109 193.766C467.109 193.688 467.137 193.621 467.191 193.566C467.246 193.512 467.313 193.484 467.391 193.484C467.469 193.484 467.535 193.512 467.59 193.566C467.645 193.621 467.672 193.688 467.672 193.766C467.672 193.818 467.659 193.866 467.633 193.91C467.609 193.952 467.576 193.984 467.531 194.008C467.49 194.034 467.443 194.047 467.391 194.047Z" fill="white"/>
</g>
<g filter="url(#filter73_f_11_3)">
<path d="M465.391 257.047C465.313 257.047 465.246 257.02 465.191 256.965C465.137 256.91 465.109 256.844 465.109 256.766C465.109 256.688 465.137 256.621 465.191 256.566C465.246 256.512 465.313 256.484 465.391 256.484C465.469 256.484 465.535 256.512 465.59 256.566C465.645 256.621 465.672 256.688 465.672 256.766C465.672 256.818 465.659 256.866 465.633 256.91C465.609 256.952 465.576 256.984 465.531 257.008C465.49 257.034 465.443 257.047 465.391 257.047Z" fill="white"/>
</g>
<g filter="url(#filter74_f_11_3)">
<path d="M385.391 276.047C385.313 276.047 385.246 276.02 385.191 275.965C385.137 275.91 385.109 275.844 385.109 275.766C385.109 275.688 385.137 275.621 385.191 275.566C385.246 275.512 385.313 275.484 385.391 275.484C385.469 275.484 385.535 275.512 385.59 275.566C385.645 275.621 385.672 275.688 385.672 275.766C385.672 275.818 385.659 275.866 385.633 275.91C385.609 275.952 385.576 275.984 385.531 276.008C385.49 276.034 385.443 276.047 385.391 276.047Z" fill="white"/>
</g>
<g filter="url(#filter75_f_11_3)">
<path d="M529.391 240.047C529.313 240.047 529.246 240.02 529.191 239.965C529.137 239.91 529.109 239.844 529.109 239.766C529.109 239.688 529.137 239.621 529.191 239.566C529.246 239.512 529.313 239.484 529.391 239.484C529.469 239.484 529.535 239.512 529.59 239.566C529.645 239.621 529.672 239.688 529.672 239.766C529.672 239.818 529.659 239.866 529.633 239.91C529.609 239.952 529.576 239.984 529.531 240.008C529.49 240.034 529.443 240.047 529.391 240.047Z" fill="white"/>
</g>
<g filter="url(#filter76_f_11_3)">
<path d="M537.391 287.047C537.313 287.047 537.246 287.02 537.191 286.965C537.137 286.91 537.109 286.844 537.109 286.766C537.109 286.688 537.137 286.621 537.191 286.566C537.246 286.512 537.313 286.484 537.391 286.484C537.469 286.484 537.535 286.512 537.59 286.566C537.645 286.621 537.672 286.688 537.672 286.766C537.672 286.818 537.659 286.866 537.633 286.91C537.609 286.952 537.576 286.984 537.531 287.008C537.49 287.034 537.443 287.047 537.391 287.047Z" fill="white"/>
</g>
</g>
<defs>
<filter id="filter0_b_11_3" x="-4" y="-4" width="571" height="304" filterUnits="userSpaceOnUse" color-interpolation-filters="sRGB">
<feFlood flood-opacity="0" result="BackgroundImageFix"/>
<feGaussianBlur in="BackgroundImageFix" stdDeviation="2"/>
<feComposite in2="SourceAlpha" operator="in" result="effect1_backgroundBlur_11_3"/>
<feBlend mode="normal" in="SourceGraphic" in2="effect1_backgroundBlur_11_3" result="shape"/>
</filter>
<filter id="filter1_f_11_3" x="137.809" y="62.1844" width="1.1625" height="1.1625" filterUnits="userSpaceOnUse" color-interpolation-filters="sRGB">
<feFlood flood-opacity="0" result="BackgroundImageFix"/>
<feBlend mode="normal" in="SourceGraphic" in2="BackgroundImageFix" result="shape"/>
<feGaussianBlur stdDeviation="0.15" result="effect1_foregroundBlur_11_3"/>
</filter>
<filter id="filter2_f_11_3" x="49.8094" y="34.1844" width="1.1625" height="1.1625" filterUnits="userSpaceOnUse" color-interpolation-filters="sRGB">
<feFlood flood-opacity="0" result="BackgroundImageFix"/>
<feBlend mode="normal" in="SourceGraphic" in2="BackgroundImageFix" result="shape"/>
<feGaussianBlur stdDeviation="0.15" result="effect1_foregroundBlur_11_3"/>
</filter>
<filter id="filter3_f_11_3" x="57.8094" y="81.1844" width="1.1625" height="1.1625" filterUnits="userSpaceOnUse" color-interpolation-filters="sRGB">
<feFlood flood-opacity="0" result="BackgroundImageFix"/>
<feBlend mode="normal" in="SourceGraphic" in2="BackgroundImageFix" result="shape"/>
<feGaussianBlur stdDeviation="0.15" result="effect1_foregroundBlur_11_3"/>
</filter>
<filter id="filter4_f_11_3" x="295.809" y="45.1844" width="1.1625" height="1.1625" filterUnits="userSpaceOnUse" color-interpolation-filters="sRGB">
<feFlood flood-opacity="0" result="BackgroundImageFix"/>
<feBlend mode="normal" in="SourceGraphic" in2="BackgroundImageFix" result="shape"/>
<feGaussianBlur stdDeviation="0.15" result="effect1_foregroundBlur_11_3"/>
</filter>
<filter id="filter5_f_11_3" x="207.809" y="17.1844" width="1.1625" height="1.1625" filterUnits="userSpaceOnUse" color-interpolation-filters="sRGB">
<feFlood flood-opacity="0" result="BackgroundImageFix"/>
<feBlend mode="normal" in="SourceGraphic" in2="BackgroundImageFix" result="shape"/>
<feGaussianBlur stdDeviation="0.15" result="effect1_foregroundBlur_11_3"/>
</filter>
<filter id="filter6_f_11_3" x="215.809" y="64.1844" width="1.1625" height="1.1625" filterUnits="userSpaceOnUse" color-interpolation-filters="sRGB">
<feFlood flood-opacity="0" result="BackgroundImageFix"/>
<feBlend mode="normal" in="SourceGraphic" in2="BackgroundImageFix" result="shape"/>
<feGaussianBlur stdDeviation="0.15" result="effect1_foregroundBlur_11_3"/>
</filter>
<filter id="filter7_f_11_3" x="271.809" y="120.184" width="1.1625" height="1.1625" filterUnits="userSpaceOnUse" color-interpolation-filters="sRGB">
<feFlood flood-opacity="0" result="BackgroundImageFix"/>
<feBlend mode="normal" in="SourceGraphic" in2="BackgroundImageFix" result="shape"/>
<feGaussianBlur stdDeviation="0.15" result="effect1_foregroundBlur_11_3"/>
</filter>
<filter id="filter8_f_11_3" x="183.809" y="92.1844" width="1.1625" height="1.1625" filterUnits="userSpaceOnUse" color-interpolation-filters="sRGB">
<feFlood flood-opacity="0" result="BackgroundImageFix"/>
<feBlend mode="normal" in="SourceGraphic" in2="BackgroundImageFix" result="shape"/>
<feGaussianBlur stdDeviation="0.15" result="effect1_foregroundBlur_11_3"/>
</filter>
<filter id="filter9_f_11_3" x="191.809" y="139.184" width="1.1625" height="1.1625" filterUnits="userSpaceOnUse" color-interpolation-filters="sRGB">
<feFlood flood-opacity="0" result="BackgroundImageFix"/>
<feBlend mode="normal" in="SourceGraphic" in2="BackgroundImageFix" result="shape"/>
<feGaussianBlur stdDeviation="0.15" result="effect1_foregroundBlur_11_3"/>
</filter>
<filter id="filter10_f_11_3" x="183.809" y="38.1844" width="1.1625" height="1.1625" filterUnits="userSpaceOnUse" color-interpolation-filters="sRGB">
<feFlood flood-opacity="0" result="BackgroundImageFix"/>
<feBlend mode="normal" in="SourceGraphic" in2="BackgroundImageFix" result="shape"/>
<feGaussianBlur stdDeviation="0.15" result="effect1_foregroundBlur_11_3"/>
</filter>
<filter id="filter11_f_11_3" x="95.8094" y="10.1844" width="1.1625" height="1.1625" filterUnits="userSpaceOnUse" color-interpolation-filters="sRGB">
<feFlood flood-opacity="0" result="BackgroundImageFix"/>
<feBlend mode="normal" in="SourceGraphic" in2="BackgroundImageFix" result="shape"/>
<feGaussianBlur stdDeviation="0.15" result="effect1_foregroundBlur_11_3"/>
</filter>
<filter id="filter12_f_11_3" x="103.809" y="57.1844" width="1.1625" height="1.1625" filterUnits="userSpaceOnUse" color-interpolation-filters="sRGB">
<feFlood flood-opacity="0" result="BackgroundImageFix"/>
<feBlend mode="normal" in="SourceGraphic" in2="BackgroundImageFix" result="shape"/>
<feGaussianBlur stdDeviation="0.15" result="effect1_foregroundBlur_11_3"/>
</filter>
<filter id="filter13_f_11_3" x="101.809" y="120.184" width="1.1625" height="1.1625" filterUnits="userSpaceOnUse" color-interpolation-filters="sRGB">
<feFlood flood-opacity="0" result="BackgroundImageFix"/>
<feBlend mode="normal" in="SourceGraphic" in2="BackgroundImageFix" result="shape"/>
<feGaussianBlur stdDeviation="0.15" result="effect1_foregroundBlur_11_3"/>
</filter>
<filter id="filter14_f_11_3" x="13.8094" y="92.1844" width="1.1625" height="1.1625" filterUnits="userSpaceOnUse" color-interpolation-filters="sRGB">
<feFlood flood-opacity="0" result="BackgroundImageFix"/>
<feBlend mode="normal" in="SourceGraphic" in2="BackgroundImageFix" result="shape"/>
<feGaussianBlur stdDeviation="0.15" result="effect1_foregroundBlur_11_3"/>
</filter>
<filter id="filter15_f_11_3" x="21.8094" y="139.184" width="1.1625" height="1.1625" filterUnits="userSpaceOnUse" color-interpolation-filters="sRGB">
<feFlood flood-opacity="0" result="BackgroundImageFix"/>
<feBlend mode="normal" in="SourceGraphic" in2="BackgroundImageFix" result="shape"/>
<feGaussianBlur stdDeviation="0.15" result="effect1_foregroundBlur_11_3"/>
</filter>
<filter id="filter16_f_11_3" x="253.809" y="131.184" width="1.1625" height="1.1625" filterUnits="userSpaceOnUse" color-interpolation-filters="sRGB">
<feFlood flood-opacity="0" result="BackgroundImageFix"/>
<feBlend mode="normal" in="SourceGraphic" in2="BackgroundImageFix" result="shape"/>
<feGaussianBlur stdDeviation="0.15" result="effect1_foregroundBlur_11_3"/>
</filter>
<filter id="filter17_f_11_3" x="165.809" y="103.184" width="1.1625" height="1.1625" filterUnits="userSpaceOnUse" color-interpolation-filters="sRGB">
<feFlood flood-opacity="0" result="BackgroundImageFix"/>
<feBlend mode="normal" in="SourceGraphic" in2="BackgroundImageFix" result="shape"/>
<feGaussianBlur stdDeviation="0.15" result="effect1_foregroundBlur_11_3"/>
</filter>
<filter id="filter18_f_11_3" x="173.809" y="150.184" width="1.1625" height="1.1625" filterUnits="userSpaceOnUse" color-interpolation-filters="sRGB">
<feFlood flood-opacity="0" result="BackgroundImageFix"/>
<feBlend mode="normal" in="SourceGraphic" in2="BackgroundImageFix" result="shape"/>
<feGaussianBlur stdDeviation="0.15" result="effect1_foregroundBlur_11_3"/>
</filter>
<filter id="filter19_f_11_3" x="323.809" y="129.184" width="1.1625" height="1.1625" filterUnits="userSpaceOnUse" color-interpolation-filters="sRGB">
<feFlood flood-opacity="0" result="BackgroundImageFix"/>
<feBlend mode="normal" in="SourceGraphic" in2="BackgroundImageFix" result="shape"/>
<feGaussianBlur stdDeviation="0.15" result="effect1_foregroundBlur_11_3"/>
</filter>
<filter id="filter20_f_11_3" x="235.809" y="101.184" width="1.1625" height="1.1625" filterUnits="userSpaceOnUse" color-interpolation-filters="sRGB">
<feFlood flood-opacity="0" result="BackgroundImageFix"/>
<feBlend mode="normal" in="SourceGraphic" in2="BackgroundImageFix" result="shape"/>
<feGaussianBlur stdDeviation="0.15" result="effect1_foregroundBlur_11_3"/>
</filter>
<filter id="filter21_f_11_3" x="243.809" y="148.184" width="1.1625" height="1.1625" filterUnits="userSpaceOnUse" color-interpolation-filters="sRGB">
<feFlood flood-opacity="0" result="BackgroundImageFix"/>
<feBlend mode="normal" in="SourceGraphic" in2="BackgroundImageFix" result="shape"/>
<feGaussianBlur stdDeviation="0.15" result="effect1_foregroundBlur_11_3"/>
</filter>
<filter id="filter22_f_11_3" x="393.809" y="84.1844" width="1.1625" height="1.1625" filterUnits="userSpaceOnUse" color-interpolation-filters="sRGB">
<feFlood flood-opacity="0" result="BackgroundImageFix"/>
<feBlend mode="normal" in="SourceGraphic" in2="BackgroundImageFix" result="shape"/>
<feGaussianBlur stdDeviation="0.15" result="effect1_foregroundBlur_11_3"/>
</filter>
<filter id="filter23_f_11_3" x="401.809" y="131.184" width="1.1625" height="1.1625" filterUnits="userSpaceOnUse" color-interpolation-filters="sRGB">
<feFlood flood-opacity="0" result="BackgroundImageFix"/>
<feBlend mode="normal" in="SourceGraphic" in2="BackgroundImageFix" result="shape"/>
<feGaussianBlur stdDeviation="0.15" result="effect1_foregroundBlur_11_3"/>
</filter>
<filter id="filter24_f_11_3" x="369.809" y="159.184" width="1.1625" height="1.1625" filterUnits="userSpaceOnUse" color-interpolation-filters="sRGB">
<feFlood flood-opacity="0" result="BackgroundImageFix"/>
<feBlend mode="normal" in="SourceGraphic" in2="BackgroundImageFix" result="shape"/>
<feGaussianBlur stdDeviation="0.15" result="effect1_foregroundBlur_11_3"/>
</filter>
<filter id="filter25_f_11_3" x="377.809" y="206.184" width="1.1625" height="1.1625" filterUnits="userSpaceOnUse" color-interpolation-filters="sRGB">
<feFlood flood-opacity="0" result="BackgroundImageFix"/>
<feBlend mode="normal" in="SourceGraphic" in2="BackgroundImageFix" result="shape"/>
<feGaussianBlur stdDeviation="0.15" result="effect1_foregroundBlur_11_3"/>
</filter>
<filter id="filter26_f_11_3" x="369.809" y="105.184" width="1.1625" height="1.1625" filterUnits="userSpaceOnUse" color-interpolation-filters="sRGB">
<feFlood flood-opacity="0" result="BackgroundImageFix"/>
<feBlend mode="normal" in="SourceGraphic" in2="BackgroundImageFix" result="shape"/>
<feGaussianBlur stdDeviation="0.15" result="effect1_foregroundBlur_11_3"/>
</filter>
<filter id="filter27_f_11_3" x="281.809" y="77.1844" width="1.1625" height="1.1625" filterUnits="userSpaceOnUse" color-interpolation-filters="sRGB">
<feFlood flood-opacity="0" result="BackgroundImageFix"/>
<feBlend mode="normal" in="SourceGraphic" in2="BackgroundImageFix" result="shape"/>
<feGaussianBlur stdDeviation="0.15" result="effect1_foregroundBlur_11_3"/>
</filter>
<filter id="filter28_f_11_3" x="289.809" y="124.184" width="1.1625" height="1.1625" filterUnits="userSpaceOnUse" color-interpolation-filters="sRGB">
<feFlood flood-opacity="0" result="BackgroundImageFix"/>
<feBlend mode="normal" in="SourceGraphic" in2="BackgroundImageFix" result="shape"/>
<feGaussianBlur stdDeviation="0.15" result="effect1_foregroundBlur_11_3"/>
</filter>
<filter id="filter29_f_11_3" x="287.809" y="187.184" width="1.1625" height="1.1625" filterUnits="userSpaceOnUse" color-interpolation-filters="sRGB">
<feFlood flood-opacity="0" result="BackgroundImageFix"/>
<feBlend mode="normal" in="SourceGraphic" in2="BackgroundImageFix" result="shape"/>
<feGaussianBlur stdDeviation="0.15" result="effect1_foregroundBlur_11_3"/>
</filter>
<filter id="filter30_f_11_3" x="207.809" y="206.184" width="1.1625" height="1.1625" filterUnits="userSpaceOnUse" color-interpolation-filters="sRGB">
<feFlood flood-opacity="0" result="BackgroundImageFix"/>
<feBlend mode="normal" in="SourceGraphic" in2="BackgroundImageFix" result="shape"/>
<feGaussianBlur stdDeviation="0.15" result="effect1_foregroundBlur_11_3"/>
</filter>
<filter id="filter31_f_11_3" x="351.809" y="170.184" width="1.1625" height="1.1625" filterUnits="userSpaceOnUse" color-interpolation-filters="sRGB">
<feFlood flood-opacity="0" result="BackgroundImageFix"/>
<feBlend mode="normal" in="SourceGraphic" in2="BackgroundImageFix" result="shape"/>
<feGaussianBlur stdDeviation="0.15" result="effect1_foregroundBlur_11_3"/>
</filter>
<filter id="filter32_f_11_3" x="359.809" y="217.184" width="1.1625" height="1.1625" filterUnits="userSpaceOnUse" color-interpolation-filters="sRGB">
<feFlood flood-opacity="0" result="BackgroundImageFix"/>
<feBlend mode="normal" in="SourceGraphic" in2="BackgroundImageFix" result="shape"/>
<feGaussianBlur stdDeviation="0.15" result="effect1_foregroundBlur_11_3"/>
</filter>
<filter id="filter33_f_11_3" x="489.809" y="55.1844" width="1.1625" height="1.1625" filterUnits="userSpaceOnUse" color-interpolation-filters="sRGB">
<feFlood flood-opacity="0" result="BackgroundImageFix"/>
<feBlend mode="normal" in="SourceGraphic" in2="BackgroundImageFix" result="shape"/>
<feGaussianBlur stdDeviation="0.15" result="effect1_foregroundBlur_11_3"/>
</filter>
<filter id="filter34_f_11_3" x="401.809" y="27.1844" width="1.1625" height="1.1625" filterUnits="userSpaceOnUse" color-interpolation-filters="sRGB">
<feFlood flood-opacity="0" result="BackgroundImageFix"/>
<feBlend mode="normal" in="SourceGraphic" in2="BackgroundImageFix" result="shape"/>
<feGaussianBlur stdDeviation="0.15" result="effect1_foregroundBlur_11_3"/>
</filter>
<filter id="filter35_f_11_3" x="409.809" y="74.1844" width="1.1625" height="1.1625" filterUnits="userSpaceOnUse" color-interpolation-filters="sRGB">
<feFlood flood-opacity="0" result="BackgroundImageFix"/>
<feBlend mode="normal" in="SourceGraphic" in2="BackgroundImageFix" result="shape"/>
<feGaussianBlur stdDeviation="0.15" result="effect1_foregroundBlur_11_3"/>
</filter>
<filter id="filter36_f_11_3" x="559.809" y="10.1844" width="1.1625" height="1.1625" filterUnits="userSpaceOnUse" color-interpolation-filters="sRGB">
<feFlood flood-opacity="0" result="BackgroundImageFix"/>
<feBlend mode="normal" in="SourceGraphic" in2="BackgroundImageFix" result="shape"/>
<feGaussianBlur stdDeviation="0.15" result="effect1_foregroundBlur_11_3"/>
</filter>
<filter id="filter37_f_11_3" x="535.809" y="85.1844" width="1.1625" height="1.1625" filterUnits="userSpaceOnUse" color-interpolation-filters="sRGB">
<feFlood flood-opacity="0" result="BackgroundImageFix"/>
<feBlend mode="normal" in="SourceGraphic" in2="BackgroundImageFix" result="shape"/>
<feGaussianBlur stdDeviation="0.15" result="effect1_foregroundBlur_11_3"/>
</filter>
<filter id="filter38_f_11_3" x="543.809" y="132.184" width="1.1625" height="1.1625" filterUnits="userSpaceOnUse" color-interpolation-filters="sRGB">
<feFlood flood-opacity="0" result="BackgroundImageFix"/>
<feBlend mode="normal" in="SourceGraphic" in2="BackgroundImageFix" result="shape"/>
<feGaussianBlur stdDeviation="0.15" result="effect1_foregroundBlur_11_3"/>
</filter>
<filter id="filter39_f_11_3" x="535.809" y="31.1844" width="1.1625" height="1.1625" filterUnits="userSpaceOnUse" color-interpolation-filters="sRGB">
<feFlood flood-opacity="0" result="BackgroundImageFix"/>
<feBlend mode="normal" in="SourceGraphic" in2="BackgroundImageFix" result="shape"/>
<feGaussianBlur stdDeviation="0.15" result="effect1_foregroundBlur_11_3"/>
</filter>
<filter id="filter40_f_11_3" x="447.809" y="3.18437" width="1.1625" height="1.1625" filterUnits="userSpaceOnUse" color-interpolation-filters="sRGB">
<feFlood flood-opacity="0" result="BackgroundImageFix"/>
<feBlend mode="normal" in="SourceGraphic" in2="BackgroundImageFix" result="shape"/>
<feGaussianBlur stdDeviation="0.15" result="effect1_foregroundBlur_11_3"/>
</filter>
<filter id="filter41_f_11_3" x="455.809" y="50.1844" width="1.1625" height="1.1625" filterUnits="userSpaceOnUse" color-interpolation-filters="sRGB">
<feFlood flood-opacity="0" result="BackgroundImageFix"/>
<feBlend mode="normal" in="SourceGraphic" in2="BackgroundImageFix" result="shape"/>
<feGaussianBlur stdDeviation="0.15" result="effect1_foregroundBlur_11_3"/>
</filter>
<filter id="filter42_f_11_3" x="453.809" y="113.184" width="1.1625" height="1.1625" filterUnits="userSpaceOnUse" color-interpolation-filters="sRGB">
<feFlood flood-opacity="0" result="BackgroundImageFix"/>
<feBlend mode="normal" in="SourceGraphic" in2="BackgroundImageFix" result="shape"/>
<feGaussianBlur stdDeviation="0.15" result="effect1_foregroundBlur_11_3"/>
</filter>
<filter id="filter43_f_11_3" x="373.809" y="132.184" width="1.1625" height="1.1625" filterUnits="userSpaceOnUse" color-interpolation-filters="sRGB">
<feFlood flood-opacity="0" result="BackgroundImageFix"/>
<feBlend mode="normal" in="SourceGraphic" in2="BackgroundImageFix" result="shape"/>
<feGaussianBlur stdDeviation="0.15" result="effect1_foregroundBlur_11_3"/>
</filter>
<filter id="filter44_f_11_3" x="517.809" y="96.1844" width="1.1625" height="1.1625" filterUnits="userSpaceOnUse" color-interpolation-filters="sRGB">
<feFlood flood-opacity="0" result="BackgroundImageFix"/>
<feBlend mode="normal" in="SourceGraphic" in2="BackgroundImageFix" result="shape"/>
<feGaussianBlur stdDeviation="0.15" result="effect1_foregroundBlur_11_3"/>
</filter>
<filter id="filter45_f_11_3" x="525.809" y="143.184" width="1.1625" height="1.1625" filterUnits="userSpaceOnUse" color-interpolation-filters="sRGB">
<feFlood flood-opacity="0" result="BackgroundImageFix"/>
<feBlend mode="normal" in="SourceGraphic" in2="BackgroundImageFix" result="shape"/>
<feGaussianBlur stdDeviation="0.15" result="effect1_foregroundBlur_11_3"/>
</filter>
<filter id="filter46_f_11_3" x="114.809" y="238.184" width="1.1625" height="1.1625" filterUnits="userSpaceOnUse" color-interpolation-filters="sRGB">
<feFlood flood-opacity="0" result="BackgroundImageFix"/>
<feBlend mode="normal" in="SourceGraphic" in2="BackgroundImageFix" result="shape"/>
<feGaussianBlur stdDeviation="0.15" result="effect1_foregroundBlur_11_3"/>
</filter>
<filter id="filter47_f_11_3" x="26.8094" y="210.184" width="1.1625" height="1.1625" filterUnits="userSpaceOnUse" color-interpolation-filters="sRGB">
<feFlood flood-opacity="0" result="BackgroundImageFix"/>
<feBlend mode="normal" in="SourceGraphic" in2="BackgroundImageFix" result="shape"/>
<feGaussianBlur stdDeviation="0.15" result="effect1_foregroundBlur_11_3"/>
</filter>
<filter id="filter48_f_11_3" x="34.8094" y="257.184" width="1.1625" height="1.1625" filterUnits="userSpaceOnUse" color-interpolation-filters="sRGB">
<feFlood flood-opacity="0" result="BackgroundImageFix"/>
<feBlend mode="normal" in="SourceGraphic" in2="BackgroundImageFix" result="shape"/>
<feGaussianBlur stdDeviation="0.15" result="effect1_foregroundBlur_11_3"/>
</filter>
<filter id="filter49_f_11_3" x="184.809" y="193.184" width="1.1625" height="1.1625" filterUnits="userSpaceOnUse" color-interpolation-filters="sRGB">
<feFlood flood-opacity="0" result="BackgroundImageFix"/>
<feBlend mode="normal" in="SourceGraphic" in2="BackgroundImageFix" result="shape"/>
<feGaussianBlur stdDeviation="0.15" result="effect1_foregroundBlur_11_3"/>
</filter>
<filter id="filter50_f_11_3" x="192.809" y="240.184" width="1.1625" height="1.1625" filterUnits="userSpaceOnUse" color-interpolation-filters="sRGB">
<feFlood flood-opacity="0" result="BackgroundImageFix"/>
<feBlend mode="normal" in="SourceGraphic" in2="BackgroundImageFix" result="shape"/>
<feGaussianBlur stdDeviation="0.15" result="effect1_foregroundBlur_11_3"/>
</filter>
<filter id="filter51_f_11_3" x="160.809" y="268.184" width="1.1625" height="1.1625" filterUnits="userSpaceOnUse" color-interpolation-filters="sRGB">
<feFlood flood-opacity="0" result="BackgroundImageFix"/>
<feBlend mode="normal" in="SourceGraphic" in2="BackgroundImageFix" result="shape"/>
<feGaussianBlur stdDeviation="0.15" result="effect1_foregroundBlur_11_3"/>
</filter>
<filter id="filter52_f_11_3" x="160.809" y="214.184" width="1.1625" height="1.1625" filterUnits="userSpaceOnUse" color-interpolation-filters="sRGB">
<feFlood flood-opacity="0" result="BackgroundImageFix"/>
<feBlend mode="normal" in="SourceGraphic" in2="BackgroundImageFix" result="shape"/>
<feGaussianBlur stdDeviation="0.15" result="effect1_foregroundBlur_11_3"/>
</filter>
<filter id="filter53_f_11_3" x="72.8094" y="186.184" width="1.1625" height="1.1625" filterUnits="userSpaceOnUse" color-interpolation-filters="sRGB">
<feFlood flood-opacity="0" result="BackgroundImageFix"/>
<feBlend mode="normal" in="SourceGraphic" in2="BackgroundImageFix" result="shape"/>
<feGaussianBlur stdDeviation="0.15" result="effect1_foregroundBlur_11_3"/>
</filter>
<filter id="filter54_f_11_3" x="80.8094" y="233.184" width="1.1625" height="1.1625" filterUnits="userSpaceOnUse" color-interpolation-filters="sRGB">
<feFlood flood-opacity="0" result="BackgroundImageFix"/>
<feBlend mode="normal" in="SourceGraphic" in2="BackgroundImageFix" result="shape"/>
<feGaussianBlur stdDeviation="0.15" result="effect1_foregroundBlur_11_3"/>
</filter>
<filter id="filter55_f_11_3" x="142.809" y="279.184" width="1.1625" height="1.1625" filterUnits="userSpaceOnUse" color-interpolation-filters="sRGB">
<feFlood flood-opacity="0" result="BackgroundImageFix"/>
<feBlend mode="normal" in="SourceGraphic" in2="BackgroundImageFix" result="shape"/>
<feGaussianBlur stdDeviation="0.15" result="effect1_foregroundBlur_11_3"/>
</filter>
<filter id="filter56_f_11_3" x="320.809" y="261.184" width="1.1625" height="1.1625" filterUnits="userSpaceOnUse" color-interpolation-filters="sRGB">
<feFlood flood-opacity="0" result="BackgroundImageFix"/>
<feBlend mode="normal" in="SourceGraphic" in2="BackgroundImageFix" result="shape"/>
<feGaussianBlur stdDeviation="0.15" result="effect1_foregroundBlur_11_3"/>
</filter>
<filter id="filter57_f_11_3" x="232.809" y="233.184" width="1.1625" height="1.1625" filterUnits="userSpaceOnUse" color-interpolation-filters="sRGB">
<feFlood flood-opacity="0" result="BackgroundImageFix"/>
<feBlend mode="normal" in="SourceGraphic" in2="BackgroundImageFix" result="shape"/>
<feGaussianBlur stdDeviation="0.15" result="effect1_foregroundBlur_11_3"/>
</filter>
<filter id="filter58_f_11_3" x="240.809" y="280.184" width="1.1625" height="1.1625" filterUnits="userSpaceOnUse" color-interpolation-filters="sRGB">
<feFlood flood-opacity="0" result="BackgroundImageFix"/>
<feBlend mode="normal" in="SourceGraphic" in2="BackgroundImageFix" result="shape"/>
<feGaussianBlur stdDeviation="0.15" result="effect1_foregroundBlur_11_3"/>
</filter>
<filter id="filter59_f_11_3" x="390.809" y="216.184" width="1.1625" height="1.1625" filterUnits="userSpaceOnUse" color-interpolation-filters="sRGB">
<feFlood flood-opacity="0" result="BackgroundImageFix"/>
<feBlend mode="normal" in="SourceGraphic" in2="BackgroundImageFix" result="shape"/>
<feGaussianBlur stdDeviation="0.15" result="effect1_foregroundBlur_11_3"/>
</filter>
<filter id="filter60_f_11_3" x="398.809" y="263.184" width="1.1625" height="1.1625" filterUnits="userSpaceOnUse" color-interpolation-filters="sRGB">
<feFlood flood-opacity="0" result="BackgroundImageFix"/>
<feBlend mode="normal" in="SourceGraphic" in2="BackgroundImageFix" result="shape"/>
<feGaussianBlur stdDeviation="0.15" result="effect1_foregroundBlur_11_3"/>
</filter>
<filter id="filter61_f_11_3" x="366.809" y="291.184" width="1.1625" height="1.1625" filterUnits="userSpaceOnUse" color-interpolation-filters="sRGB">
<feFlood flood-opacity="0" result="BackgroundImageFix"/>
<feBlend mode="normal" in="SourceGraphic" in2="BackgroundImageFix" result="shape"/>
<feGaussianBlur stdDeviation="0.15" result="effect1_foregroundBlur_11_3"/>
</filter>
<filter id="filter62_f_11_3" x="366.809" y="237.184" width="1.1625" height="1.1625" filterUnits="userSpaceOnUse" color-interpolation-filters="sRGB">
<feFlood flood-opacity="0" result="BackgroundImageFix"/>
<feBlend mode="normal" in="SourceGraphic" in2="BackgroundImageFix" result="shape"/>
<feGaussianBlur stdDeviation="0.15" result="effect1_foregroundBlur_11_3"/>
</filter>
<filter id="filter63_f_11_3" x="278.809" y="209.184" width="1.1625" height="1.1625" filterUnits="userSpaceOnUse" color-interpolation-filters="sRGB">
<feFlood flood-opacity="0" result="BackgroundImageFix"/>
<feBlend mode="normal" in="SourceGraphic" in2="BackgroundImageFix" result="shape"/>
<feGaussianBlur stdDeviation="0.15" result="effect1_foregroundBlur_11_3"/>
</filter>
<filter id="filter64_f_11_3" x="286.809" y="256.184" width="1.1625" height="1.1625" filterUnits="userSpaceOnUse" color-interpolation-filters="sRGB">
<feFlood flood-opacity="0" result="BackgroundImageFix"/>
<feBlend mode="normal" in="SourceGraphic" in2="BackgroundImageFix" result="shape"/>
<feGaussianBlur stdDeviation="0.15" result="effect1_foregroundBlur_11_3"/>
</filter>
<filter id="filter65_f_11_3" x="500.809" y="198.184" width="1.1625" height="1.1625" filterUnits="userSpaceOnUse" color-interpolation-filters="sRGB">
<feFlood flood-opacity="0" result="BackgroundImageFix"/>
<feBlend mode="normal" in="SourceGraphic" in2="BackgroundImageFix" result="shape"/>
<feGaussianBlur stdDeviation="0.15" result="effect1_foregroundBlur_11_3"/>
</filter>
<filter id="filter66_f_11_3" x="412.809" y="170.184" width="1.1625" height="1.1625" filterUnits="userSpaceOnUse" color-interpolation-filters="sRGB">
<feFlood flood-opacity="0" result="BackgroundImageFix"/>
<feBlend mode="normal" in="SourceGraphic" in2="BackgroundImageFix" result="shape"/>
<feGaussianBlur stdDeviation="0.15" result="effect1_foregroundBlur_11_3"/>
</filter>
<filter id="filter67_f_11_3" x="420.809" y="217.184" width="1.1625" height="1.1625" filterUnits="userSpaceOnUse" color-interpolation-filters="sRGB">
<feFlood flood-opacity="0" result="BackgroundImageFix"/>
<feBlend mode="normal" in="SourceGraphic" in2="BackgroundImageFix" result="shape"/>
<feGaussianBlur stdDeviation="0.15" result="effect1_foregroundBlur_11_3"/>
</filter>
<filter id="filter68_f_11_3" x="546.809" y="228.184" width="1.1625" height="1.1625" filterUnits="userSpaceOnUse" color-interpolation-filters="sRGB">
<feFlood flood-opacity="0" result="BackgroundImageFix"/>
<feBlend mode="normal" in="SourceGraphic" in2="BackgroundImageFix" result="shape"/>
<feGaussianBlur stdDeviation="0.15" result="effect1_foregroundBlur_11_3"/>
</filter>
<filter id="filter69_f_11_3" x="554.809" y="275.184" width="1.1625" height="1.1625" filterUnits="userSpaceOnUse" color-interpolation-filters="sRGB">
<feFlood flood-opacity="0" result="BackgroundImageFix"/>
<feBlend mode="normal" in="SourceGraphic" in2="BackgroundImageFix" result="shape"/>
<feGaussianBlur stdDeviation="0.15" result="effect1_foregroundBlur_11_3"/>
</filter>
<filter id="filter70_f_11_3" x="546.809" y="174.184" width="1.1625" height="1.1625" filterUnits="userSpaceOnUse" color-interpolation-filters="sRGB">
<feFlood flood-opacity="0" result="BackgroundImageFix"/>
<feBlend mode="normal" in="SourceGraphic" in2="BackgroundImageFix" result="shape"/>
<feGaussianBlur stdDeviation="0.15" result="effect1_foregroundBlur_11_3"/>
</filter>
<filter id="filter71_f_11_3" x="458.809" y="146.184" width="1.1625" height="1.1625" filterUnits="userSpaceOnUse" color-interpolation-filters="sRGB">
<feFlood flood-opacity="0" result="BackgroundImageFix"/>
<feBlend mode="normal" in="SourceGraphic" in2="BackgroundImageFix" result="shape"/>
<feGaussianBlur stdDeviation="0.15" result="effect1_foregroundBlur_11_3"/>
</filter>
<filter id="filter72_f_11_3" x="466.809" y="193.184" width="1.1625" height="1.1625" filterUnits="userSpaceOnUse" color-interpolation-filters="sRGB">
<feFlood flood-opacity="0" result="BackgroundImageFix"/>
<feBlend mode="normal" in="SourceGraphic" in2="BackgroundImageFix" result="shape"/>
<feGaussianBlur stdDeviation="0.15" result="effect1_foregroundBlur_11_3"/>
</filter>
<filter id="filter73_f_11_3" x="464.809" y="256.184" width="1.1625" height="1.1625" filterUnits="userSpaceOnUse" color-interpolation-filters="sRGB">
<feFlood flood-opacity="0" result="BackgroundImageFix"/>
<feBlend mode="normal" in="SourceGraphic" in2="BackgroundImageFix" result="shape"/>
<feGaussianBlur stdDeviation="0.15" result="effect1_foregroundBlur_11_3"/>
</filter>
<filter id="filter74_f_11_3" x="384.809" y="275.184" width="1.1625" height="1.1625" filterUnits="userSpaceOnUse" color-interpolation-filters="sRGB">
<feFlood flood-opacity="0" result="BackgroundImageFix"/>
<feBlend mode="normal" in="SourceGraphic" in2="BackgroundImageFix" result="shape"/>
<feGaussianBlur stdDeviation="0.15" result="effect1_foregroundBlur_11_3"/>
</filter>
<filter id="filter75_f_11_3" x="528.809" y="239.184" width="1.1625" height="1.1625" filterUnits="userSpaceOnUse" color-interpolation-filters="sRGB">
<feFlood flood-opacity="0" result="BackgroundImageFix"/>
<feBlend mode="normal" in="SourceGraphic" in2="BackgroundImageFix" result="shape"/>
<feGaussianBlur stdDeviation="0.15" result="effect1_foregroundBlur_11_3"/>
</filter>
<filter id="filter76_f_11_3" x="536.809" y="286.184" width="1.1625" height="1.1625" filterUnits="userSpaceOnUse" color-interpolation-filters="sRGB">
<feFlood flood-opacity="0" result="BackgroundImageFix"/>
<feBlend mode="normal" in="SourceGraphic" in2="BackgroundImageFix" result="shape"/>
<feGaussianBlur stdDeviation="0.15" result="effect1_foregroundBlur_11_3"/>
</filter>
<linearGradient id="paint0_linear_11_3" x1="281.5" y1="-4.70188e-07" x2="281" y2="296" gradientUnits="userSpaceOnUse">
<stop stop-color="#3E434B"/>
<stop offset="0.228221" stop-color="#1F2937"/>
<stop offset="0.446849" stop-color="#101926"/>
<stop offset="0.796534" stop-color="#00050C"/>
</linearGradient>
<clipPath id="clip0_11_3">
<rect width="563" height="296" fill="white"/>
</clipPath>
</defs>
</svg>
