<!DOCTYPE svg PUBLIC "-//W3C//DTD SVG 1.1//EN" "http://www.w3.org/Graphics/SVG/1.1/DTD/svg11.dtd">
<!-- Uploaded to: SVG Repo, www.svgrepo.com, Transformed by: SVG Repo Mixer Tools -->
<svg fill="#f0f6f9" width="64px" height="64px" viewBox="-51.2 -51.2 614.40 614.40" xmlns="http://www.w3.org/2000/svg" stroke="#f0f6f9">
<g id="SVGRepo_bgCarrier" stroke-width="0" transform="translate(0,0), scale(1)"/>
<g id="SVGRepo_tracerCarrier" stroke-linecap="round" stroke-linejoin="round" stroke="#CCCCCC" stroke-width="5.12">
<title>ionicons-v5-r</title>
<path d="M95.5,104h320a87.73,87.73,0,0,1,11.18.71,66,66,0,0,0-77.51-55.56L86,94.08l-.3,0a66,66,0,0,0-41.07,26.13A87.57,87.57,0,0,1,95.5,104Z"/>
<path d="M415.5,128H95.5a64.07,64.07,0,0,0-64,64V384a64.07,64.07,0,0,0,64,64h320a64.07,64.07,0,0,0,64-64V192A64.07,64.07,0,0,0,415.5,128ZM368,320a32,32,0,1,1,32-32A32,32,0,0,1,368,320Z"/>
<path d="M32,259.5V160c0-21.67,12-58,53.65-65.87C121,87.5,156,87.5,156,87.5s23,16,4,16S141.5,128,160,128s0,23.5,0,23.5L85.5,236Z"/>
</g>
<g id="SVGRepo_iconCarrier">
<title>ionicons-v5-r</title>
<path d="M95.5,104h320a87.73,87.73,0,0,1,11.18.71,66,66,0,0,0-77.51-55.56L86,94.08l-.3,0a66,66,0,0,0-41.07,26.13A87.57,87.57,0,0,1,95.5,104Z"/>
<path d="M415.5,128H95.5a64.07,64.07,0,0,0-64,64V384a64.07,64.07,0,0,0,64,64h320a64.07,64.07,0,0,0,64-64V192A64.07,64.07,0,0,0,415.5,128ZM368,320a32,32,0,1,1,32-32A32,32,0,0,1,368,320Z"/>
<path d="M32,259.5V160c0-21.67,12-58,53.65-65.87C121,87.5,156,87.5,156,87.5s23,16,4,16S141.5,128,160,128s0,23.5,0,23.5L85.5,236Z"/>
</g>
</svg>